<svg width="33" height="33" viewBox="0 0 33 33" fill="none" xmlns="http://www.w3.org/2000/svg">
<path d="M16.8023 0.605698C12.7606 0.608208 8.8689 2.14723 5.90634 4.91468C2.94379 7.68213 1.12896 11.4738 0.825165 15.5306C0.521373 19.5874 1.75104 23.6101 4.26798 26.7933C6.78493 29.9765 10.4034 32.0853 14.3991 32.6977V21.409H10.2336V16.7323H14.2389V13.1845C14.1524 12.3723 14.245 11.5509 14.51 10.7789C14.7749 10.0069 15.2058 9.30319 15.7719 8.71797C16.338 8.13275 17.0254 7.68042 17.785 7.39321C18.5447 7.106 19.3579 6.99098 20.1668 7.05634C21.3482 7.0709 22.5267 7.17875 23.6914 7.37888V11.2493H21.7689C21.4368 11.2112 21.1004 11.2463 20.7831 11.3521C20.4659 11.4579 20.1752 11.6319 19.9314 11.862C19.6876 12.0921 19.4963 12.3729 19.371 12.6847C19.2456 12.9966 19.1892 13.3322 19.2055 13.6683V16.7323H23.5312L22.8904 21.409H19.2055V32.6977C23.2012 32.0853 26.8197 29.9765 29.3366 26.7933C31.8536 23.6101 33.0832 19.5874 32.7795 15.5306C32.4757 11.4738 30.6608 7.68213 27.6983 4.91468C24.7357 2.14723 20.8441 0.608208 16.8023 0.605698Z" fill="#757575"/>
</svg>
