<svg width="25" height="28" viewBox="0 0 25 28" fill="none" xmlns="http://www.w3.org/2000/svg">
<path d="M14.272 13.2351L18.3091 9.06343L3.37174 0.585457C3.23717 0.450885 2.96803 0.450886 2.83346 0.316315H2.69888C2.56431 0.316315 2.42974 0.316315 2.29517 0.316315H2.1606C2.02603 0.316315 1.89146 0.316315 1.89146 0.450886H1.75689L1.62231 0.585457L14.272 13.2351Z" fill="#00DF5E"/>
<path d="M0.949999 1.25827C0.949999 1.39284 0.81543 1.52741 0.81543 1.52741V1.66198C0.81543 1.79655 0.81543 2.0657 0.81543 2.20027V25.3465C0.81543 25.7502 0.949999 26.1539 1.08457 26.5576L13.7342 13.7734L0.949999 1.25827Z" fill="#00DF5E"/>
<path d="M14.272 14.4462L1.62231 27.2304C1.75689 27.2304 1.75689 27.2304 1.89146 27.2304C2.02603 27.2304 2.02603 27.2304 2.1606 27.2304C2.29517 27.2304 2.42974 27.2304 2.56431 27.2304H2.69888C2.96803 27.2304 3.1026 27.0959 3.37174 26.9613L18.3091 18.4833L14.272 14.4462Z" fill="#00DF5E"/>
<path d="M24.9043 13.9079C24.9043 13.2351 24.3661 12.6968 23.8278 12.4277L18.9832 9.73624L14.8115 14.0425L19.1178 18.2142L23.8278 15.5228C24.2315 15.2536 24.6352 14.9845 24.7698 14.5808C24.9044 14.1771 24.9043 14.0425 24.9043 13.9079Z" fill="#00DF5E"/>
</svg>
